<svg xmlns="http://www.w3.org/2000/svg" xmlns:xlink="http://www.w3.org/1999/xlink" viewBox="0 0 689 382">
<g stroke="none" stroke-width="1"><g transform="translate(-235.000000, -612.000000)" fill="#70668D"><path d="M236.644588,612.916293 C237.915813,622.705433 241.383892,630.865825 247.050338,638.426672 C251.390822,644.218263 255.715632,648.429579 265.266519,656.764664 C295.233846,682.917232 345.896851,716.571168 376.790844,730.911019 C404.190643,743.628996 435.911956,753.31204 474.312377,761.343416 C503.478115,767.443376 527.998757,771.296 582.938479,779.012104 C586.060806,779.450625 586.633698,779.531097 587.992755,779.722117 C640.774976,787.14084 667.35087,791.380982 696.948259,797.709848 C735.541689,805.962354 767.644063,815.977202 795.477041,829.121246 C860.659908,859.903667 901.676131,907.967656 918.449158,981.42022 L918.950011,983.653835 L920.26,990.035 L922.755221,982.490069 L923.989497,982.89819 L920.730265,992.755067 L920.375378,993.828351 L919.626314,992.981719 L912.74702,985.206377 L913.720646,984.344953 L918.987,990.297 L917.678493,983.924307 C901.32235,909.627241 860.410765,861.223681 794.921909,830.296758 C767.190217,817.200546 735.179531,807.214301 696.676423,798.981109 C667.118631,792.660711 640.564204,788.423993 587.811814,781.009463 C586.452822,780.818452 585.879945,780.737982 582.757673,780.299469 C527.789041,772.579305 503.24991,768.723776 474.046243,762.615883 C435.556396,754.565804 403.74438,744.855072 376.243518,732.090186 C345.233759,717.6966 294.468472,683.974721 264.411738,657.744128 C254.793531,649.350293 250.422678,645.094142 246.010061,639.206303 C240.351268,631.655668 236.82708,623.5005 235.452179,613.796531 L235.355412,613.083707 L236.644588,612.916293 Z"/></g></g></svg>