<svg class="icon icon--instagram" xmlns="http://www.w3.org/2000/svg" viewBox="0 0 32.007 32">
  <path d="M16,10.9a8.2,8.2,0,1,0,8.2,8.2A8.191,8.191,0,0,0,16,10.9Zm0,13.538a5.334,5.334,0,1,1,5.334-5.334A5.344,5.344,0,0,1,16,24.442ZM26.453,10.568A1.914,1.914,0,1,1,24.54,8.654,1.909,1.909,0,0,1,26.453,10.568Zm5.434,1.942a9.47,9.47,0,0,0-2.585-6.7A9.532,9.532,0,0,0,22.6,3.22c-2.642-.15-10.561-.15-13.2,0A9.519,9.519,0,0,0,2.69,5.8,9.5,9.5,0,0,0,.105,12.5c-.15,2.642-.15,10.561,0,13.2a9.47,9.47,0,0,0,2.585,6.7A9.545,9.545,0,0,0,9.395,35c2.642.15,10.561.15,13.2,0a9.47,9.47,0,0,0,6.7-2.585,9.532,9.532,0,0,0,2.585-6.7C32.037,23.064,32.037,15.152,31.887,12.51ZM28.474,28.54a5.4,5.4,0,0,1-3.042,3.042c-2.106.835-7.1.643-9.433.643s-7.333.186-9.433-.643A5.4,5.4,0,0,1,3.525,28.54c-.835-2.106-.643-7.1-.643-9.433s-.186-7.333.643-9.433A5.4,5.4,0,0,1,6.567,6.634c2.106-.835,7.1-.643,9.433-.643s7.333-.186,9.433.643a5.4,5.4,0,0,1,3.042,3.042c.835,2.106.643,7.1.643,9.433S29.31,26.441,28.474,28.54Z" transform="translate(0.007 -3.108)"/>
</svg>
