<svg class="icon icon--logo" version="1.1" xmlns="http://www.w3.org/2000/svg" xmlns:xlink="http://www.w3.org/1999/xlink" viewBox="0, 0, 400,400"><g><path id="path0" d="M193.588 16.027 C 181.912 17.537,174.774 25.289,174.829 36.400 C 174.857 41.886,175.757 44.579,179.777 51.200 C 188.830 66.110,188.332 73.729,177.626 84.072 L 174.684 86.915 179.649 88.535 C 191.969 92.555,207.879 95.284,214.724 94.551 L 216.436 94.368 215.080 91.651 C 211.793 85.064,211.000 75.489,213.294 70.088 C 213.761 68.990,213.758 68.952,213.118 67.368 C 211.985 64.562,212.798 61.285,215.791 56.601 C 217.690 53.628,218.029 53.509,218.324 55.707 C 218.452 56.662,218.081 60.162,217.671 61.859 L 217.512 62.519 218.290 62.017 C 223.547 58.619,230.393 52.096,231.771 49.171 C 237.499 37.019,230.141 22.834,215.752 18.288 C 209.705 16.378,199.176 15.304,193.588 16.027 M116.343 166.287 C 114.625 170.495,118.258 180.073,123.130 184.182 C 124.180 185.067,124.718 185.885,126.082 188.669 C 127.992 192.568,130.191 196.451,132.874 200.665 L 134.740 203.596 133.037 202.113 C 129.885 199.369,127.113 197.821,123.006 196.513 C 120.591 195.743,120.465 195.883,121.591 198.083 C 124.297 203.372,130.139 206.851,137.015 207.268 C 137.206 207.279,138.186 208.332,139.192 209.608 C 140.197 210.883,142.425 213.533,144.142 215.496 C 147.251 219.053,148.984 221.306,150.168 223.333 L 150.791 224.400 149.639 223.467 C 144.197 219.060,142.219 218.141,138.111 218.114 C 134.355 218.089,134.066 218.376,135.738 220.475 C 138.318 223.716,144.288 226.120,149.781 226.130 C 152.271 226.134,151.979 225.766,155.968 233.912 C 157.871 237.797,159.491 240.786,159.695 240.791 C 160.113 240.801,160.145 240.899,158.659 237.668 L 157.525 235.203 158.217 234.201 C 161.492 229.458,160.475 218.085,156.326 213.067 L 155.775 212.400 155.504 213.108 C 154.523 215.667,154.221 224.582,154.979 228.600 C 155.193 229.737,155.341 230.667,155.307 230.667 C 155.273 230.667,154.629 229.522,153.875 228.123 C 152.360 225.313,148.952 220.175,147.031 217.804 L 145.791 216.275 146.096 214.760 C 147.116 209.679,145.995 204.803,142.320 198.333 C 140.070 194.374,139.860 194.564,139.889 200.533 C 139.909 204.633,140.328 206.886,141.723 210.390 L 142.629 212.667 141.573 211.467 C 139.645 209.274,135.096 202.994,132.902 199.494 L 130.737 196.042 131.519 194.464 C 132.988 191.500,132.829 187.403,131.028 181.800 C 129.981 178.542,129.776 178.377,129.211 180.333 C 128.160 183.970,128.009 186.850,128.682 190.399 C 128.911 191.605,129.052 192.637,128.996 192.693 C 128.578 193.111,124.819 184.206,124.538 182.133 C 124.139 179.188,123.371 176.175,122.487 174.078 C 120.920 170.364,116.807 165.149,116.343 166.287 M118.231 171.131 C 118.904 172.779,120.365 176.182,121.478 178.691 C 123.708 183.721,123.776 184.069,122.170 182.245 C 118.909 178.540,116.800 173.445,116.800 169.271 C 116.800 167.578,116.759 167.524,118.231 171.131 M119.381 169.933 C 121.414 172.983,122.769 176.259,123.473 179.821 C 123.861 181.787,123.695 181.968,122.999 180.340 C 122.699 179.639,121.649 177.207,120.664 174.933 C 117.504 167.636,117.287 166.790,119.381 169.933 M131.251 185.067 C 132.009 188.163,131.987 191.586,131.198 193.685 C 130.877 194.539,130.574 195.196,130.523 195.146 C 129.648 194.270,128.790 185.168,129.347 182.667 C 129.899 180.190,130.130 180.482,131.251 185.067 M143.196 201.467 C 145.358 205.766,145.969 208.240,145.812 212.050 C 145.645 216.114,145.508 216.111,143.352 211.984 C 141.416 208.276,140.767 205.648,140.622 200.933 L 140.498 196.933 141.043 197.600 C 141.342 197.967,142.311 199.707,143.196 201.467 M183.645 217.893 C 182.820 228.832,183.410 242.386,185.219 254.068 C 185.941 258.733,185.928 259.716,185.019 269.303 C 184.675 272.923,184.434 272.893,184.180 269.200 C 183.507 259.431,180.135 250.737,174.408 244.000 L 173.614 243.067 173.607 243.781 C 173.568 247.709,174.972 251.948,179.067 260.267 C 183.376 269.021,184.112 271.167,184.091 274.933 C 184.078 277.308,182.904 285.985,182.547 286.342 C 182.310 286.579,180.030 277.450,178.664 270.800 C 176.843 261.931,174.807 256.496,172.148 253.405 L 171.521 252.676 171.895 255.071 C 173.436 264.945,176.415 275.806,180.335 285.847 L 181.941 289.961 181.079 294.114 C 180.604 296.398,180.167 298.317,180.108 298.378 C 179.925 298.566,179.854 298.361,179.012 295.200 C 178.096 291.760,176.566 286.135,175.574 282.557 C 174.446 278.487,169.830 267.286,170.015 269.067 C 170.961 278.162,175.809 293.815,179.362 299.241 C 179.905 300.070,179.138 303.517,176.850 310.533 L 175.632 314.267 175.425 312.400 C 173.388 293.994,170.988 285.043,166.150 277.809 C 164.005 274.603,163.985 274.654,165.106 280.431 C 166.183 285.986,167.553 291.169,170.276 300.000 C 171.204 303.007,172.573 307.611,173.319 310.232 C 174.066 312.853,174.776 315.176,174.898 315.393 C 175.037 315.643,174.736 316.982,174.080 319.028 C 173.509 320.809,172.680 323.647,172.239 325.333 C 171.797 327.020,171.366 328.580,171.280 328.800 C 171.080 329.315,171.077 329.298,168.655 317.477 C 165.883 303.949,164.344 299.429,158.845 288.667 C 157.462 285.961,157.358 285.826,157.506 286.933 C 157.735 288.648,160.328 298.966,161.568 303.098 C 162.146 305.023,163.237 309.223,163.993 312.432 C 166.627 323.614,168.434 328.812,170.284 330.526 C 170.900 331.097,170.916 331.195,170.641 332.685 C 170.482 333.543,170.211 336.230,170.037 338.656 L 169.722 343.067 168.630 341.067 C 161.182 327.420,160.828 326.558,159.480 318.745 C 157.481 307.158,156.616 304.282,154.058 300.718 L 153.139 299.437 152.976 300.985 C 151.214 317.762,155.399 329.135,168.264 342.533 L 170.057 344.400 170.389 347.063 C 171.188 353.473,174.740 360.996,177.854 362.876 C 179.113 363.635,178.861 362.791,177.346 361.171 C 173.408 356.961,170.933 350.020,170.933 343.185 L 170.933 340.865 174.733 339.121 C 176.823 338.161,179.156 337.131,179.918 336.832 C 184.392 335.071,188.856 332.450,192.267 329.583 C 193.367 328.659,195.707 326.830,197.467 325.520 C 199.227 324.210,200.718 323.091,200.780 323.034 C 201.937 321.965,186.860 328.908,184.375 330.588 C 183.509 331.174,181.360 332.465,179.600 333.459 C 175.938 335.525,173.691 337.074,172.067 338.652 L 170.933 339.753 170.939 338.343 C 170.944 337.010,171.285 334.079,171.623 332.464 C 171.800 331.616,173.521 330.216,181.067 324.783 C 193.249 316.012,198.598 310.588,206.098 299.400 C 207.773 296.901,207.695 296.865,205.245 299.000 C 201.955 301.867,195.799 306.706,190.630 310.487 C 185.360 314.341,184.117 315.531,181.717 319.019 C 180.439 320.876,172.267 329.320,172.267 328.784 C 172.267 327.187,176.976 312.797,177.699 312.187 C 179.014 311.075,180.627 310.198,184.473 308.506 C 191.397 305.458,196.690 301.321,200.775 295.765 C 202.753 293.074,202.759 293.086,200.036 294.251 C 190.772 298.217,183.681 303.246,179.312 308.950 C 177.539 311.265,177.497 311.292,178.024 309.800 C 178.370 308.820,179.628 304.210,180.536 300.600 C 180.754 299.733,180.948 299.467,181.361 299.467 C 182.099 299.467,182.469 299.256,187.200 296.137 C 189.473 294.638,193.373 292.182,195.867 290.679 C 202.511 286.674,205.303 284.428,207.463 281.352 L 208.105 280.437 206.653 281.523 C 204.988 282.768,202.718 283.935,198.533 285.696 C 193.166 287.956,189.057 290.797,183.933 295.792 C 182.357 297.329,181.067 298.527,181.067 298.454 C 181.067 298.061,182.990 289.454,183.103 289.341 C 183.177 289.267,184.099 289.062,185.152 288.885 C 189.708 288.118,194.808 284.192,197.719 279.209 C 198.980 277.050,201.483 271.527,201.288 271.332 C 201.236 271.281,199.816 272.700,198.131 274.486 C 193.628 279.258,186.895 285.205,184.176 286.811 L 183.388 287.277 183.578 285.972 C 183.683 285.254,183.974 283.348,184.225 281.736 L 184.682 278.804 185.928 278.626 C 189.982 278.046,195.198 272.077,200.923 261.467 C 202.092 259.300,205.927 250.905,205.804 250.782 C 205.713 250.691,202.594 254.695,191.916 268.612 C 188.113 273.568,184.973 277.588,184.940 277.545 C 184.906 277.502,185.047 276.163,185.253 274.569 L 185.628 271.672 187.173 269.876 C 190.832 265.625,192.608 261.930,195.062 253.464 C 196.711 247.775,198.604 237.182,198.068 236.646 C 197.354 235.932,189.948 254.446,187.339 263.467 C 186.485 266.421,185.999 267.187,186.242 265.200 C 186.331 264.467,186.524 261.559,186.669 258.738 C 186.815 255.917,187.228 250.997,187.587 247.804 C 189.159 233.840,188.123 224.057,184.278 216.559 L 183.813 215.652 183.645 217.893 M78.486 217.228 C 78.050 218.364,82.739 229.244,86.749 236.400 C 89.957 242.127,92.926 245.926,98.938 252.000 C 101.584 254.672,103.066 256.402,103.737 257.600 C 104.272 258.553,106.029 261.673,107.643 264.533 C 113.161 274.313,121.282 289.600,120.960 289.600 C 120.576 289.600,110.952 283.295,109.048 281.796 C 108.817 281.615,107.871 280.147,106.944 278.533 C 99.422 265.435,93.150 260.391,82.733 259.062 C 80.886 258.826,80.889 259.202,82.756 261.698 C 83.539 262.744,84.937 264.740,85.864 266.133 C 90.577 273.219,94.903 277.409,100.359 280.174 C 102.304 281.160,106.629 282.667,107.513 282.667 C 107.806 282.667,109.576 283.745,111.448 285.063 C 113.319 286.381,116.399 288.428,118.292 289.612 C 120.185 290.795,121.888 291.915,122.076 292.101 C 122.648 292.663,126.400 301.955,126.400 302.808 C 126.400 302.857,125.290 302.379,123.933 301.745 C 122.577 301.112,120.207 300.195,118.667 299.707 C 116.434 299.001,115.506 298.543,114.089 297.449 C 107.803 292.597,98.711 290.659,92.400 292.826 C 89.204 293.923,89.954 295.121,96.611 299.544 C 100.332 302.017,105.134 302.461,111.842 300.952 L 115.283 300.177 117.042 300.642 C 121.121 301.719,127.038 304.618,127.270 305.653 C 127.346 305.990,127.768 307.827,128.209 309.733 C 129.505 315.341,131.200 327.096,131.200 330.473 L 131.200 331.480 129.531 329.407 C 128.614 328.266,127.272 326.373,126.551 325.200 C 119.578 313.858,115.705 310.439,111.599 312.000 C 110.743 312.326,110.780 312.503,112.431 315.983 C 115.521 322.496,118.803 325.494,124.895 327.368 C 126.713 327.927,127.731 328.937,130.117 332.546 L 131.624 334.825 132.240 346.679 C 132.960 360.541,132.991 360.822,133.695 360.043 C 134.165 359.523,134.174 359.238,133.874 354.411 C 133.595 349.927,133.608 349.194,133.977 348.197 C 134.498 346.795,134.195 343.834,133.658 345.067 C 133.375 345.715,133.367 345.708,133.349 344.800 C 133.253 339.902,132.125 325.710,131.334 319.467 C 130.862 315.734,130.423 306.334,130.220 295.600 L 130.069 287.600 130.937 286.533 C 136.241 280.012,137.622 271.165,134.912 261.067 C 133.376 255.347,131.911 254.232,130.532 257.733 C 130.069 258.907,129.140 260.887,128.466 262.133 C 125.663 267.317,125.554 275.234,128.131 286.667 C 128.640 288.926,128.791 290.547,128.915 295.067 C 129.000 298.147,129.131 302.347,129.208 304.400 L 129.347 308.133 128.148 304.090 C 126.422 298.268,124.659 293.936,121.070 286.695 C 117.679 279.855,116.493 276.652,115.840 272.574 C 115.613 271.158,115.263 268.992,115.063 267.759 C 114.707 265.573,114.714 265.489,115.330 264.274 C 118.259 258.493,117.239 249.097,112.720 240.224 C 110.476 235.817,109.758 235.721,108.535 239.663 C 106.815 245.210,108.716 256.288,112.734 264.133 C 113.353 265.342,115.122 274.301,114.804 274.618 C 114.749 274.673,114.440 274.197,114.117 273.559 C 113.067 271.488,106.894 260.470,105.286 257.799 L 103.721 255.197 103.469 251.894 C 102.380 237.626,93.861 224.444,81.689 218.192 C 78.635 216.623,78.709 216.646,78.486 217.228 M158.954 221.200 C 160.058 225.760,159.829 230.385,158.382 232.766 C 157.661 233.950,157.665 233.970,157.968 230.140 C 158.207 227.124,157.989 221.885,157.447 217.600 L 157.329 216.667 157.883 217.867 C 158.188 218.527,158.670 220.027,158.954 221.200 M140.522 219.064 C 142.921 219.569,144.104 220.168,146.997 222.343 C 149.887 224.516,149.835 224.568,146.235 223.109 C 144.639 222.461,142.493 221.665,141.467 221.338 C 135.395 219.408,134.748 217.850,140.522 219.064 M86.174 222.532 C 93.928 228.351,99.980 238.075,101.732 247.530 C 102.716 252.838,102.417 252.750,98.692 246.632 C 93.985 238.905,89.548 231.912,85.345 225.600 C 83.344 222.593,81.604 219.966,81.480 219.762 C 81.113 219.157,83.755 220.716,86.174 222.532 M142.527 222.409 C 144.283 223.025,146.683 223.995,147.860 224.564 L 150.000 225.599 148.071 225.450 C 144.419 225.169,139.914 223.479,137.746 221.575 C 136.462 220.448,136.557 220.219,138.067 220.801 C 138.763 221.069,140.770 221.793,142.527 222.409 M85.532 228.200 C 94.271 241.492,100.748 252.140,98.793 250.000 C 92.851 243.498,87.921 236.330,84.546 229.282 C 82.895 225.835,81.292 222.133,81.450 222.133 C 81.501 222.133,83.338 224.863,85.532 228.200 M110.651 245.600 C 110.817 247.140,111.316 250.962,111.760 254.094 C 112.714 260.823,112.668 261.066,111.260 256.746 C 109.231 250.524,108.615 244.746,109.588 241.067 L 109.976 239.600 110.162 241.200 C 110.264 242.080,110.484 244.060,110.651 245.600 M113.955 246.307 C 115.217 249.934,115.849 253.840,115.655 256.827 C 115.495 259.294,114.725 262.577,114.392 262.214 C 114.060 261.853,112.009 247.363,111.606 242.533 L 111.450 240.667 112.237 242.148 C 112.669 242.963,113.442 244.835,113.955 246.307 M133.555 261.067 C 136.131 269.121,134.904 279.394,130.801 284.133 L 130.109 284.933 130.267 280.400 C 130.479 274.325,130.871 269.809,131.494 266.267 C 131.777 264.653,132.154 262.346,132.330 261.138 C 132.692 258.656,132.782 258.650,133.555 261.067 M89.780 262.145 C 95.384 264.360,101.870 271.068,105.726 278.639 L 106.187 279.544 104.519 278.239 C 100.267 274.911,84.267 261.035,84.267 260.675 C 84.267 260.453,88.056 261.464,89.780 262.145 M130.853 261.933 C 129.835 267.800,129.588 269.703,129.344 273.532 C 129.187 275.990,128.978 279.140,128.879 280.533 L 128.700 283.067 128.370 280.800 C 127.037 271.647,127.235 268.081,129.314 263.805 C 130.698 260.959,131.108 260.459,130.853 261.933 M92.390 269.657 C 95.965 272.813,101.062 277.089,105.224 280.420 C 106.897 281.759,100.901 279.137,98.129 277.316 C 94.179 274.722,91.119 271.521,87.060 265.733 L 85.750 263.867 86.849 264.800 C 87.453 265.313,89.947 267.499,92.390 269.657 M103.821 293.982 C 106.997 294.787,114.131 298.137,112.662 298.133 C 111.481 298.129,104.003 297.285,103.120 297.056 C 102.504 296.896,100.022 296.143,97.605 295.383 L 93.210 294.002 94.538 293.693 C 96.943 293.135,100.976 293.260,103.821 293.982 M75.792 294.563 C 76.532 300.076,83.163 307.533,89.296 309.748 C 90.598 310.218,93.632 313.731,98.728 320.667 C 102.661 326.020,102.802 326.291,100.933 324.915 C 97.882 322.668,89.856 320.728,88.813 321.985 C 87.957 323.016,91.916 327.203,95.521 329.079 C 97.668 330.196,102.005 331.467,103.670 331.467 C 106.108 331.467,106.359 331.691,109.136 336.362 C 111.849 340.924,114.024 344.857,115.785 348.384 L 116.858 350.533 114.229 347.968 C 109.975 343.818,107.620 342.594,103.810 342.556 C 100.731 342.524,100.495 342.799,101.660 345.060 C 104.085 349.765,111.200 353.847,117.017 353.871 C 118.640 353.877,119.328 355.110,123.189 364.933 C 125.123 369.853,124.916 369.485,125.575 369.175 C 126.068 368.943,126.047 368.823,125.085 366.267 L 124.081 363.600 125.078 362.400 C 127.368 359.645,128.102 357.056,128.105 351.733 C 128.107 346.697,126.733 339.733,125.737 339.733 C 123.791 339.733,120.960 350.391,121.464 355.819 L 121.617 357.467 120.762 355.600 C 120.291 354.573,118.611 351.163,117.027 348.023 L 114.148 342.312 114.956 340.620 C 117.780 334.701,116.777 327.893,111.907 319.926 C 109.918 316.673,109.498 317.857,109.704 326.133 C 109.803 330.098,109.982 332.260,110.356 334.000 C 110.639 335.320,110.853 336.422,110.831 336.449 C 110.809 336.475,110.084 335.335,109.220 333.915 C 107.333 330.816,103.459 324.973,101.267 321.921 L 99.679 319.708 100.285 318.321 C 101.881 314.667,100.601 309.322,96.710 303.392 C 94.837 300.537,94.555 300.660,94.457 304.373 C 94.368 307.785,94.886 310.951,96.008 313.841 C 96.430 314.926,96.672 315.706,96.546 315.574 C 95.220 314.175,91.067 308.750,90.851 308.133 C 88.406 301.141,81.905 294.532,76.632 293.676 L 75.652 293.517 75.792 294.563 M96.287 296.413 C 101.008 298.034,103.804 298.664,107.578 298.956 C 112.245 299.316,112.501 299.528,109.000 300.128 C 103.511 301.069,100.629 300.567,96.842 298.009 C 93.198 295.548,93.120 295.326,96.287 296.413 M82.283 297.954 C 84.426 299.565,86.116 301.598,87.864 304.667 C 88.606 305.971,88.580 305.954,86.653 303.867 C 85.570 302.693,83.420 300.429,81.875 298.835 C 78.972 295.839,79.100 295.562,82.283 297.954 M86.667 305.856 C 88.743 308.174,88.609 308.239,85.733 306.315 C 82.739 304.311,77.559 298.166,77.609 296.678 C 77.620 296.369,83.561 302.388,86.667 305.856 M142.308 301.534 C 141.603 302.674,138.309 316.806,137.475 322.267 C 137.074 324.891,139.248 319.169,140.116 315.315 C 140.642 312.978,141.250 310.467,141.468 309.733 L 141.863 308.400 141.721 310.933 C 141.642 312.327,141.514 313.947,141.435 314.533 L 141.293 315.600 142.105 314.172 C 142.841 312.878,142.937 312.430,143.133 309.372 L 143.350 306.000 143.757 308.133 L 144.165 310.267 144.636 309.200 C 145.501 307.243,143.286 299.951,142.308 301.534 M98.007 308.369 C 99.678 311.931,100.146 314.934,99.428 317.467 L 99.125 318.533 98.862 317.733 C 98.717 317.293,98.079 315.605,97.443 313.981 C 96.277 311.005,95.467 307.366,95.467 305.103 L 95.467 303.876 96.167 304.907 C 96.552 305.474,97.380 307.032,98.007 308.369 M114.533 313.097 C 116.800 313.722,119.023 316.010,122.671 321.467 L 124.096 323.600 118.581 318.297 C 112.177 312.137,112.484 312.532,114.533 313.097 M123.584 325.286 C 123.449 325.458,120.162 323.702,118.942 322.806 C 117.573 321.801,115.975 319.747,114.477 317.067 L 113.508 315.333 118.581 320.267 C 121.370 322.980,123.622 325.239,123.584 325.286 M112.593 323.867 C 115.526 329.649,116.091 334.486,114.370 339.085 C 113.707 340.857,113.577 340.777,112.694 338.064 C 111.318 333.835,110.663 329.317,110.675 324.140 C 110.685 320.141,110.702 320.139,112.593 323.867 M235.333 325.507 C 230.744 328.812,229.372 331.400,229.135 337.200 C 228.984 340.910,227.617 344.931,225.397 348.198 C 225.219 348.459,217.795 349.966,210.941 351.131 L 210.016 351.289 211.008 350.130 C 211.554 349.492,212.000 348.885,212.000 348.781 C 212.000 348.677,213.735 347.001,215.856 345.058 C 220.511 340.792,221.134 339.944,221.285 337.667 C 221.419 335.647,221.350 335.627,218.700 336.953 C 215.122 338.743,213.393 341.064,212.710 344.993 C 212.086 348.585,209.895 351.464,207.392 351.979 C 201.364 353.221,191.733 355.613,191.733 355.868 C 191.733 356.069,193.355 355.791,196.426 355.064 L 201.118 353.954 204.863 354.987 C 209.082 356.152,208.831 356.042,212.267 358.224 C 216.646 361.004,221.502 361.986,225.267 360.854 C 226.783 360.398,226.719 360.236,224.467 358.835 C 220.285 356.235,215.768 355.013,211.397 355.299 C 208.273 355.504,201.421 354.016,203.113 353.500 C 203.981 353.236,210.706 351.789,214.335 351.085 C 223.185 349.370,232.629 351.328,234.585 355.284 C 237.307 360.789,242.950 364.800,247.972 364.800 C 249.602 364.800,249.438 364.366,245.685 358.753 C 244.130 356.427,239.635 354.018,235.067 353.062 C 234.187 352.878,232.440 352.327,231.185 351.837 C 228.849 350.927,226.401 350.332,223.644 350.007 C 221.558 349.760,221.685 349.709,226.285 348.949 C 238.800 346.881,240.592 346.832,245.040 348.429 C 247.469 349.302,247.837 349.521,248.513 350.503 C 251.100 354.262,255.683 356.533,260.680 356.533 C 262.995 356.533,263.061 356.421,261.838 354.573 C 259.726 351.386,255.237 349.315,249.636 348.946 C 248.109 348.845,243.364 347.565,242.422 347.000 C 242.068 346.787,243.170 346.632,248.878 346.088 L 255.202 345.486 257.934 346.862 C 264.929 350.385,272.202 350.068,278.432 345.967 C 281.558 343.910,281.551 343.883,277.630 342.843 C 269.870 340.787,263.540 341.228,256.929 344.288 C 255.933 344.749,254.800 345.067,254.151 345.067 C 252.832 345.067,244.208 345.935,238.162 346.676 C 235.757 346.971,233.739 347.161,233.677 347.099 C 233.527 346.949,237.074 343.395,239.004 341.762 C 240.466 340.526,240.664 340.443,242.984 340.098 C 251.185 338.879,255.638 336.111,258.520 330.442 C 259.110 329.281,259.347 329.309,255.067 330.041 C 247.659 331.307,243.900 333.527,241.075 338.302 C 240.497 339.280,238.700 341.286,236.285 343.650 L 232.421 347.434 229.277 347.934 C 227.548 348.209,226.133 348.354,226.133 348.255 C 226.133 347.171,229.751 340.756,230.916 339.773 C 234.701 336.582,237.333 331.079,237.333 326.357 C 237.333 324.205,237.212 324.154,235.333 325.507 M235.698 326.467 C 235.521 326.797,234.850 327.890,234.205 328.895 C 232.784 331.114,231.757 333.220,230.547 336.400 L 229.633 338.800 229.617 336.923 C 229.583 333.085,230.832 330.218,233.690 327.571 C 235.608 325.796,236.244 325.446,235.698 326.467 M236.537 328.639 C 236.094 330.910,234.948 333.752,233.746 335.563 C 232.728 337.097,230.431 339.587,230.225 339.380 C 229.818 338.974,232.872 332.186,235.033 328.694 C 236.797 325.845,237.084 325.834,236.537 328.639 M252.800 332.165 C 248.679 334.337,246.958 335.356,243.773 337.512 C 240.835 339.500,240.929 339.469,241.664 338.200 C 243.619 334.826,248.033 331.920,252.695 330.937 C 256.363 330.164,256.373 330.281,252.800 332.165 M257.703 330.733 C 254.678 335.891,251.148 338.186,244.456 339.347 C 241.492 339.861,241.435 339.800,243.515 338.324 C 247.878 335.230,258.352 329.625,257.703 330.733 M217.876 339.250 C 216.972 340.322,215.558 342.189,214.736 343.398 C 212.977 345.982,212.813 345.996,213.572 343.499 C 214.292 341.130,215.431 339.627,217.589 338.205 C 219.817 336.736,219.861 336.896,217.876 339.250 M220.311 339.380 C 219.613 340.748,214.122 346.121,214.139 345.419 C 214.148 345.042,217.392 340.658,219.067 338.761 C 220.831 336.762,221.482 337.085,220.311 339.380 M275.024 342.795 C 278.729 343.569,278.946 343.858,275.867 343.921 C 271.110 344.017,259.355 344.550,258.567 344.706 C 257.003 345.014,258.180 344.275,260.344 343.590 C 265.006 342.112,270.366 341.822,275.024 342.795 M106.901 344.122 C 108.643 344.736,110.613 346.183,112.933 348.550 C 114.107 349.747,114.827 350.600,114.533 350.446 C 114.240 350.292,111.480 348.649,108.400 346.795 L 102.800 343.424 104.293 343.576 C 105.114 343.660,106.288 343.906,106.901 344.122 M278.667 345.080 C 273.750 349.022,265.423 349.728,259.200 346.731 L 256.667 345.511 258.533 345.294 C 261.439 344.956,268.971 344.616,274.400 344.579 L 279.333 344.545 278.667 345.080 M126.849 350.667 C 127.004 355.273,126.689 357.320,125.452 359.762 C 124.658 361.329,124.468 361.357,124.795 359.859 C 125.247 357.788,125.879 352.086,126.051 348.536 C 126.277 343.863,126.655 344.871,126.849 350.667 M110.733 349.590 C 115.980 352.697,116.097 352.812,113.209 352.019 C 109.657 351.045,105.994 348.823,104.200 346.556 C 102.887 344.896,102.522 344.726,110.733 349.590 M253.414 350.026 C 256.409 350.691,258.908 352.005,260.513 353.762 C 262.153 355.557,262.111 355.776,260.336 354.684 C 259.239 354.009,253.119 350.998,250.667 349.927 L 250.000 349.636 250.747 349.618 C 251.158 349.608,252.358 349.792,253.414 350.026 M251.682 351.092 C 254.220 352.141,259.819 354.937,260.667 355.579 C 261.170 355.961,261.138 355.984,260.080 355.992 C 256.403 356.019,251.551 353.673,249.590 350.920 C 248.890 349.936,248.884 349.935,251.682 351.092 M241.467 355.927 C 244.022 357.203,244.876 358.089,246.814 361.467 C 247.711 363.030,247.520 362.926,244.702 360.314 C 243.695 359.381,241.415 357.671,239.635 356.514 C 237.856 355.357,236.160 354.230,235.867 354.009 C 235.188 353.497,239.691 355.040,241.467 355.927 M237.670 355.915 C 240.954 357.936,243.420 359.812,246.000 362.256 L 248.133 364.276 247.067 364.116 C 242.290 363.398,238.130 360.444,235.519 355.918 C 234.409 353.993,234.544 353.993,237.670 355.915 M218.000 356.535 C 220.112 357.188,223.853 358.902,223.638 359.118 C 223.373 359.383,211.512 356.379,211.067 355.935 C 210.579 355.447,215.997 355.916,218.000 356.535 M216.914 358.254 C 219.418 358.896,222.229 359.570,223.162 359.751 C 225.558 360.217,224.644 360.657,221.333 360.631 C 218.369 360.607,216.328 360.017,213.547 358.378 C 211.797 357.347,210.840 356.503,211.870 356.898 C 212.140 357.001,214.410 357.612,216.914 358.254 M134.063 365.784 C 133.805 365.852,133.662 366.018,133.746 366.154 C 133.982 366.536,134.593 366.444,134.763 366.000 C 134.921 365.589,134.870 365.574,134.063 365.784 " stroke="none" fill="#dbb354" fill-rule="evenodd"></path><path id="path1" d="M228.000 54.013 C 224.955 57.101,218.055 62.677,217.708 62.330 C 217.617 62.240,217.731 60.868,217.961 59.283 C 218.397 56.283,218.141 53.431,217.502 54.156 C 216.835 54.911,214.162 59.444,213.662 60.667 C 211.654 65.576,212.415 67.738,220.000 78.667 C 223.308 83.432,225.461 87.082,225.977 88.800 C 226.447 90.366,227.262 92.093,234.726 107.333 C 245.489 129.310,245.406 128.086,237.070 142.000 C 223.483 164.677,211.169 183.751,199.900 199.573 L 196.691 204.079 195.707 202.971 C 192.160 198.973,189.232 187.742,190.849 184.334 C 191.096 183.813,192.510 182.115,193.990 180.560 C 204.619 169.396,208.250 158.132,205.136 145.984 L 204.653 144.100 207.387 143.400 C 217.215 140.883,222.240 132.520,219.187 123.763 C 217.270 118.265,213.796 116.041,207.600 116.343 C 198.801 116.773,193.930 121.589,194.177 129.615 C 194.226 131.220,194.247 132.534,194.222 132.534 C 194.198 132.533,193.658 132.313,193.022 132.044 C 185.885 129.021,175.982 129.947,164.933 134.671 C 155.371 138.759,153.173 140.587,152.271 145.200 C 152.099 146.080,151.532 148.120,151.010 149.733 C 149.742 153.657,149.574 156.692,150.376 161.150 C 151.062 164.954,151.094 165.927,150.662 169.818 C 150.032 175.493,151.056 180.518,154.069 186.533 C 158.176 194.735,161.422 196.693,166.763 194.191 C 169.495 192.911,169.659 193.040,170.180 196.902 C 171.208 204.528,169.832 210.513,166.723 211.936 C 158.619 215.646,150.828 208.109,138.397 184.533 C 129.119 166.935,127.660 163.399,126.926 156.736 C 126.102 149.245,127.376 146.049,136.259 133.333 C 152.761 109.709,162.232 93.591,167.680 79.858 C 168.554 77.653,169.758 75.095,170.354 74.172 C 172.640 70.636,172.530 67.161,170.171 68.381 C 169.062 68.954,168.457 68.907,167.813 68.200 C 166.213 66.443,166.166 64.253,167.602 58.333 C 168.163 56.023,168.554 54.065,168.472 53.983 C 168.159 53.670,161.314 57.353,160.272 58.395 C 157.757 60.909,156.912 63.861,157.217 69.066 C 157.704 77.378,157.593 79.335,156.511 81.600 C 154.893 84.986,151.083 89.705,145.220 95.584 C 130.294 110.553,113.626 131.496,108.923 141.193 C 104.848 149.594,104.852 153.794,108.947 169.067 C 109.911 172.660,111.181 177.400,111.769 179.600 C 114.385 189.377,116.968 195.933,122.326 206.400 C 133.029 227.307,133.994 229.347,139.632 243.015 C 150.444 269.226,152.451 289.235,145.950 306.000 C 144.887 308.743,142.060 314.624,141.188 315.910 C 131.185 330.650,131.398 350.659,141.680 362.099 C 153.011 374.708,175.374 381.393,198.933 379.213 C 213.995 377.819,219.148 376.531,277.910 359.463 C 297.136 353.879,300.067 353.151,298.914 354.249 C 298.705 354.448,291.273 356.717,282.400 359.291 L 266.267 363.971 270.800 363.984 C 281.976 364.017,302.252 361.995,309.467 360.127 C 316.086 358.413,320.518 353.219,322.687 344.632 C 324.988 335.518,322.085 332.983,307.150 331.063 C 304.171 330.680,301.013 330.266,300.133 330.144 C 299.253 330.022,294.153 328.955,288.800 327.773 C 265.909 322.716,253.048 321.005,232.074 320.227 C 217.132 319.672,211.922 320.409,210.584 323.265 C 209.671 325.215,209.180 325.810,208.798 325.434 C 208.571 325.209,208.768 324.587,209.580 322.972 C 212.670 316.827,213.475 313.068,213.855 303.016 C 214.292 291.444,215.142 288.934,222.359 277.908 C 233.374 261.078,233.797 255.120,224.995 240.753 C 221.182 234.529,221.466 235.466,222.281 231.799 C 224.723 220.806,228.026 212.256,236.935 193.867 C 248.296 170.416,251.591 162.209,256.902 144.133 C 261.098 129.853,261.634 123.489,259.080 118.271 C 256.838 113.690,246.560 99.744,235.622 86.441 C 228.985 78.369,228.568 77.820,227.496 75.737 C 224.611 70.130,224.737 67.536,228.279 59.600 C 229.775 56.249,230.549 53.535,230.358 52.306 C 230.279 51.792,229.967 52.018,228.000 54.013 M118.871 168.002 C 121.889 171.565,123.836 176.297,124.638 182.018 C 124.987 184.503,125.166 184.999,127.047 188.685 C 128.164 190.875,129.020 192.427,128.949 192.133 C 128.878 191.840,128.685 191.000,128.521 190.267 C 127.677 186.497,128.908 177.815,130.107 179.080 C 130.446 179.437,131.888 184.078,132.274 186.051 C 132.816 188.826,132.527 192.663,131.637 194.481 L 130.889 196.011 131.619 197.272 C 134.495 202.243,143.106 213.901,142.004 211.333 C 140.283 207.320,139.632 203.786,139.782 199.273 C 139.952 194.172,140.288 194.221,143.187 199.772 C 146.414 205.950,147.318 210.729,146.116 215.252 C 145.862 216.209,145.903 216.298,147.531 218.319 C 149.600 220.885,151.354 223.511,153.553 227.333 C 154.481 228.947,155.174 230.027,155.093 229.733 C 153.852 225.248,154.439 212.533,155.886 212.533 C 156.423 212.533,158.055 215.720,159.048 218.708 C 161.126 224.964,160.946 230.282,158.535 233.864 L 157.612 235.235 158.814 237.806 C 159.474 239.220,159.947 240.553,159.864 240.769 C 159.604 241.447,159.105 240.656,157.105 236.400 C 156.071 234.200,154.525 231.082,153.669 229.472 L 152.112 226.543 149.056 226.240 C 143.511 225.690,139.513 224.207,136.815 221.698 C 133.801 218.897,133.899 218.170,137.323 217.934 C 140.925 217.686,144.623 219.150,148.357 222.302 C 151.598 225.037,149.244 221.377,143.874 215.333 C 142.440 213.720,140.430 211.320,139.406 210.000 C 137.376 207.383,137.187 207.246,135.576 207.219 C 129.814 207.120,120.800 200.545,120.800 196.441 C 120.800 194.705,129.152 198.460,132.919 201.889 L 134.505 203.333 133.685 202.132 C 131.764 199.319,128.817 194.223,126.671 190.000 C 124.652 186.028,124.159 185.269,122.686 183.867 C 118.355 179.745,116.011 174.597,116.008 169.200 C 116.006 165.183,116.359 165.036,118.871 168.002 M116.909 170.000 C 117.369 174.717,119.559 179.564,122.503 182.382 L 123.460 183.298 121.837 179.716 C 120.944 177.745,119.492 174.393,118.609 172.267 C 116.693 167.648,116.678 167.628,116.909 170.000 M118.139 168.606 C 118.124 169.127,123.336 180.881,123.411 180.493 C 123.526 179.896,122.772 177.044,121.942 174.933 C 121.004 172.549,118.162 167.820,118.139 168.606 M129.808 181.216 C 128.884 182.738,128.955 188.039,129.957 192.384 L 130.568 195.035 131.049 193.851 C 131.749 192.126,131.895 188.560,131.371 185.975 C 130.852 183.412,130.018 180.872,129.808 181.216 M140.712 198.161 C 139.857 201.355,141.538 208.954,144.027 213.144 C 147.087 218.294,146.361 208.174,143.209 201.733 C 141.226 197.681,140.947 197.282,140.712 198.161 M185.062 218.285 C 188.510 227.105,189.234 235.558,187.674 248.800 C 187.285 252.100,186.896 256.360,186.809 258.267 C 186.722 260.173,186.589 262.693,186.513 263.867 L 186.374 266.000 187.877 261.333 C 190.868 252.040,194.718 242.280,196.837 238.620 C 197.403 237.641,197.867 236.718,197.867 236.569 C 197.867 236.420,197.960 236.240,198.075 236.169 C 198.708 235.778,197.346 245.088,195.976 250.519 C 193.585 259.996,191.142 265.403,187.123 270.107 C 185.764 271.698,185.654 271.931,185.489 273.573 C 185.391 274.541,185.238 275.813,185.148 276.400 C 185.003 277.344,185.964 276.194,193.506 266.400 C 206.036 250.127,205.992 250.183,206.089 250.273 C 206.250 250.423,203.713 256.053,201.585 260.267 C 196.023 271.284,190.207 278.183,185.941 278.823 C 184.932 278.974,184.798 279.080,184.674 279.829 C 183.725 285.528,183.491 287.046,183.549 287.105 C 183.678 287.234,188.918 283.141,191.467 280.922 C 194.034 278.686,197.660 275.050,200.230 272.133 C 201.855 270.290,201.853 270.506,200.211 274.400 C 196.666 282.808,191.617 287.707,185.191 288.973 L 183.055 289.393 182.184 293.636 C 181.704 295.970,181.255 298.027,181.186 298.207 C 181.117 298.387,182.472 297.151,184.197 295.460 C 189.469 290.291,193.338 287.765,200.695 284.688 C 204.035 283.291,205.808 282.256,207.267 280.853 C 208.661 279.512,208.509 280.070,206.894 282.221 C 204.719 285.117,202.551 286.777,194.847 291.447 C 192.380 292.943,188.579 295.347,186.401 296.791 C 184.223 298.234,182.085 299.494,181.649 299.589 C 180.907 299.752,180.822 299.907,180.282 302.081 C 179.687 304.475,178.320 309.327,177.976 310.267 C 177.869 310.560,178.360 310.023,179.067 309.074 C 183.101 303.659,189.670 298.849,198.379 294.932 C 203.049 292.832,202.837 292.894,202.267 293.795 C 198.110 300.371,192.079 305.356,184.092 308.818 C 180.460 310.392,178.302 311.595,177.540 312.470 C 176.902 313.202,172.533 327.031,172.533 328.318 C 172.533 328.544,175.462 325.848,178.528 322.800 C 179.413 321.920,180.873 320.118,181.774 318.796 C 183.885 315.695,185.787 313.865,190.187 310.700 C 195.086 307.178,198.872 304.231,203.667 300.208 C 205.903 298.331,207.733 296.854,207.733 296.926 C 207.733 297.544,202.262 305.125,199.068 308.933 C 194.255 314.672,190.614 317.995,183.600 323.052 C 181.987 324.215,178.668 326.653,176.225 328.469 L 171.783 331.773 171.499 333.953 C 171.344 335.152,171.138 336.908,171.042 337.854 L 170.868 339.574 172.301 338.278 C 173.890 336.840,177.248 334.577,179.399 333.495 C 180.169 333.108,182.089 331.970,183.666 330.965 C 188.074 328.157,203.928 320.919,200.817 323.135 C 198.485 324.796,194.172 328.117,192.145 329.812 C 188.465 332.891,185.741 334.452,178.803 337.457 C 177.041 338.220,174.552 339.314,173.272 339.889 L 170.943 340.933 170.938 342.211 C 170.909 349.791,173.541 357.216,177.751 361.427 C 179.011 362.687,179.143 362.915,178.785 363.213 C 178.436 363.502,178.170 363.355,177.033 362.244 C 173.461 358.754,170.959 353.043,170.168 346.577 L 169.880 344.220 167.140 341.360 C 155.383 329.087,151.791 319.250,152.767 302.000 L 152.933 299.067 153.938 300.400 C 156.426 303.701,157.686 307.663,159.323 317.333 C 160.840 326.289,161.800 328.729,168.508 340.667 L 169.857 343.067 169.862 340.358 C 169.864 338.868,170.057 336.185,170.289 334.395 L 170.711 331.142 170.051 330.438 C 168.358 328.632,166.401 323.014,164.148 313.494 C 163.319 309.990,161.978 304.830,161.168 302.028 C 158.873 294.089,156.877 285.600,157.306 285.600 C 157.763 285.600,163.464 297.891,164.788 301.731 C 166.344 306.244,170.933 326.152,170.933 328.389 C 170.933 329.194,171.452 328.132,171.809 326.594 C 172.057 325.527,172.862 322.709,173.597 320.330 L 174.933 316.006 173.974 312.736 C 173.446 310.938,171.769 305.327,170.247 300.267 C 166.543 287.958,163.530 275.582,164.097 275.014 C 164.610 274.502,168.910 282.170,170.483 286.400 C 172.775 292.566,175.467 306.758,175.467 312.683 C 175.467 314.791,176.874 310.978,178.806 303.633 L 179.755 300.024 179.030 298.879 C 175.406 293.154,171.014 278.501,169.792 268.058 C 169.627 266.647,169.941 267.296,172.233 273.099 C 175.067 280.273,175.262 280.853,176.803 286.667 C 177.522 289.380,178.475 292.845,178.922 294.368 C 179.368 295.890,179.733 297.360,179.733 297.634 C 179.733 299.148,180.262 297.645,181.000 294.035 L 181.838 289.937 180.391 286.281 C 176.450 276.321,172.876 263.143,171.582 253.800 C 171.359 252.193,171.429 252.209,172.728 254.067 C 175.351 257.820,176.984 262.284,178.664 270.298 C 180.148 277.381,180.656 279.566,181.660 283.200 L 182.508 286.267 182.849 284.267 C 184.860 272.488,184.778 271.984,178.914 260.133 C 175.066 252.356,173.873 248.983,173.689 245.362 L 173.559 242.800 174.113 243.467 C 179.749 250.251,182.796 257.187,183.884 265.706 C 184.704 272.129,184.648 272.023,185.027 267.867 C 185.767 259.761,185.781 258.402,185.167 254.470 C 183.382 243.052,182.545 222.227,183.634 216.333 C 183.852 215.153,183.820 215.110,185.062 218.285 M157.795 219.467 C 157.908 220.567,158.000 224.149,158.000 227.428 L 158.000 233.390 158.667 231.962 C 159.620 229.920,159.646 223.960,158.717 220.550 C 157.857 217.394,157.546 217.028,157.795 219.467 M136.267 219.054 C 136.267 219.272,138.747 220.300,141.600 221.264 C 143.140 221.784,145.352 222.611,146.515 223.101 C 147.679 223.591,148.676 223.947,148.730 223.892 C 148.890 223.732,144.784 220.805,143.467 220.139 C 141.659 219.226,136.267 218.413,136.267 219.054 M136.800 220.625 C 136.800 220.921,140.201 223.191,141.440 223.722 C 143.496 224.603,149.600 225.920,149.600 225.483 C 149.600 225.264,143.866 222.910,140.933 221.924 C 139.173 221.333,137.523 220.765,137.267 220.663 C 137.010 220.560,136.800 220.543,136.800 220.625 M214.812 307.800 C 214.551 311.050,213.977 314.244,213.196 316.800 C 212.028 320.618,211.947 320.269,213.907 319.858 C 223.171 317.916,248.852 319.321,270.332 322.943 C 276.192 323.932,278.555 324.415,291.733 327.319 C 299.074 328.936,298.753 328.989,297.053 326.442 C 294.479 322.589,289.609 320.326,274.635 316.026 C 256.105 310.705,227.352 305.643,215.428 305.602 C 215.070 305.600,214.956 306.006,214.812 307.800 M237.495 326.983 C 237.109 331.609,235.361 335.322,231.944 338.772 C 229.786 340.951,225.461 348.289,226.351 348.261 C 226.451 348.258,227.901 348.035,229.573 347.766 L 232.612 347.277 234.140 345.572 C 234.980 344.634,236.582 343.090,237.700 342.140 C 239.092 340.958,240.049 339.869,240.733 338.690 C 242.737 335.238,245.742 332.625,249.210 331.320 C 250.576 330.806,257.629 329.333,258.727 329.333 C 259.561 329.333,257.081 333.292,254.913 335.420 C 252.468 337.821,248.387 339.456,242.800 340.271 C 241.270 340.495,240.416 340.773,239.780 341.254 C 238.601 342.145,233.867 346.679,233.867 346.916 C 233.867 347.018,235.997 346.832,238.600 346.502 C 241.203 346.172,246.153 345.637,249.600 345.314 C 254.789 344.828,256.073 344.624,257.067 344.129 C 263.178 341.083,270.463 340.625,278.000 342.813 C 281.109 343.715,281.190 343.815,279.807 345.052 C 274.251 350.023,264.536 350.730,257.395 346.684 L 255.457 345.585 251.129 346.000 C 248.748 346.228,245.930 346.489,244.867 346.580 C 243.803 346.671,242.933 346.817,242.933 346.906 C 242.933 347.321,248.283 348.793,250.278 348.926 C 255.643 349.286,259.965 351.455,262.159 354.891 C 263.151 356.445,262.965 356.800,261.160 356.800 C 256.242 356.800,251.118 354.393,248.797 350.992 C 246.851 348.141,241.688 346.918,235.147 347.757 C 230.976 348.293,222.890 349.555,222.753 349.692 C 222.709 349.735,223.700 349.908,224.954 350.076 C 226.207 350.243,228.456 350.811,229.950 351.338 C 231.444 351.864,233.747 352.576,235.067 352.919 C 241.807 354.672,244.292 356.248,246.859 360.400 C 247.676 361.720,248.566 363.086,248.838 363.436 C 249.970 364.890,249.084 365.298,246.122 364.685 C 241.445 363.718,237.036 360.295,234.734 355.844 C 233.640 353.730,233.583 353.671,231.809 352.859 C 227.756 351.002,221.529 350.038,217.500 350.644 C 215.140 350.999,204.210 353.273,203.369 353.584 C 202.682 353.838,209.136 355.565,209.885 355.328 C 213.206 354.273,222.074 356.626,225.967 359.593 C 227.366 360.660,224.738 361.485,220.625 361.270 C 217.395 361.102,215.774 360.528,212.133 358.264 C 208.588 356.060,208.908 356.198,204.733 355.067 L 201.067 354.074 196.483 355.174 C 193.542 355.879,191.807 356.181,191.643 356.016 C 191.257 355.631,192.185 355.314,196.800 354.257 C 199.073 353.737,201.953 353.075,203.200 352.787 C 204.447 352.500,206.229 352.093,207.160 351.883 C 209.956 351.253,211.862 348.841,212.627 344.964 C 213.409 341.002,214.974 338.823,218.363 336.979 C 220.804 335.651,221.286 335.610,221.493 336.713 C 221.914 338.955,221.015 340.340,216.240 344.805 C 212.398 348.399,209.808 351.416,210.831 351.107 C 211.260 350.977,214.292 350.404,223.467 348.718 L 225.200 348.400 227.014 344.751 L 228.827 341.102 228.930 337.814 C 229.096 332.529,230.419 329.321,233.445 326.868 C 237.350 323.702,237.767 323.714,237.495 326.983 M234.333 327.071 C 231.362 329.403,230.088 331.950,229.721 336.290 C 229.490 339.030,229.538 338.993,230.897 335.375 C 231.950 332.569,232.981 330.580,235.029 327.400 C 235.572 326.557,235.983 325.867,235.942 325.867 C 235.900 325.867,235.176 326.409,234.333 327.071 M235.119 328.733 C 232.941 332.210,232.387 333.399,230.426 338.800 C 230.182 339.472,230.380 339.339,231.668 337.962 C 234.340 335.106,235.994 331.732,236.473 328.163 C 236.764 325.988,236.866 325.945,235.119 328.733 M252.533 331.081 C 247.971 332.060,244.497 334.298,242.076 337.817 C 241.201 339.088,241.300 339.080,243.200 337.727 C 244.990 336.453,249.358 333.877,252.616 332.174 C 255.585 330.622,255.570 330.429,252.533 331.081 M252.933 332.888 C 248.238 335.319,243.977 337.900,242.051 339.481 C 241.737 339.739,244.606 339.269,247.033 338.665 C 251.852 337.465,254.582 335.514,257.195 331.400 C 257.851 330.368,257.700 330.421,252.933 332.888 M219.312 338.588 C 217.843 340.265,214.827 344.264,214.348 345.171 C 214.185 345.480,215.299 344.578,216.825 343.167 C 219.632 340.571,220.929 338.737,220.755 337.615 C 220.679 337.120,220.481 337.254,219.312 338.588 M217.171 338.630 C 215.209 340.007,214.209 341.428,213.607 343.694 C 213.151 345.409,213.353 345.289,215.000 342.864 C 215.822 341.656,217.173 339.917,218.003 339.000 C 219.818 336.995,219.622 336.908,217.171 338.630 M264.933 342.575 C 260.360 343.305,257.390 344.570,260.667 344.392 C 263.897 344.216,274.813 343.754,276.667 343.714 L 278.000 343.685 276.133 343.157 C 274.282 342.632,266.956 342.252,264.933 342.575 M268.267 344.835 C 265.407 344.957,261.687 345.149,260.000 345.263 L 256.933 345.471 258.211 346.234 C 263.790 349.566,273.805 349.011,278.400 345.116 L 279.067 344.551 276.267 344.583 C 274.727 344.600,271.127 344.714,268.267 344.835 M251.200 350.054 C 251.713 350.299,253.618 351.196,255.433 352.047 C 257.248 352.899,259.331 353.963,260.062 354.413 C 261.838 355.505,261.902 355.279,260.287 353.620 C 258.376 351.659,255.266 350.318,251.333 349.760 L 250.267 349.608 251.200 350.054 M249.855 351.185 C 251.814 353.658,259.580 357.042,260.708 355.914 C 261.031 355.592,250.153 350.133,249.188 350.133 C 249.096 350.133,249.397 350.607,249.855 351.185 M237.867 355.196 C 240.710 356.934,243.420 358.959,245.599 360.973 C 247.399 362.637,247.390 362.416,245.544 359.600 C 244.173 357.508,242.819 356.516,239.588 355.237 C 235.646 353.675,235.368 353.669,237.867 355.196 M234.933 354.623 C 234.933 356.899,240.884 362.255,244.761 363.469 C 247.940 364.465,248.002 364.258,245.283 361.715 C 242.482 359.094,234.933 353.922,234.933 354.623 M211.733 355.947 C 211.733 356.169,217.532 357.784,221.800 358.751 C 223.955 359.239,223.901 359.099,221.505 357.992 C 218.335 356.528,211.733 355.146,211.733 355.947 M212.948 357.907 C 215.869 359.769,218.370 360.534,221.467 360.511 C 223.430 360.497,225.688 360.069,224.068 360.019 C 223.739 360.008,220.861 359.340,217.673 358.533 C 214.485 357.727,211.821 357.067,211.753 357.067 C 211.685 357.067,212.222 357.445,212.948 357.907 M135.771 358.672 C 135.132 358.963,134.300 359.470,133.922 359.800 C 133.038 360.573,126.172 367.584,126.234 367.651 C 126.259 367.679,127.297 367.421,128.540 367.077 C 132.595 365.956,134.470 365.628,138.711 365.295 L 142.889 364.966 141.323 363.257 C 140.461 362.317,139.241 360.783,138.612 359.849 C 137.322 357.936,137.360 357.951,135.771 358.672 M139.639 366.290 C 133.590 366.798,127.337 368.114,125.773 369.209 C 125.466 369.424,125.028 369.600,124.800 369.600 C 122.806 369.600,114.667 375.532,114.667 376.985 C 114.667 378.124,115.153 378.210,119.795 377.896 C 124.498 377.578,129.782 377.769,138.456 378.571 C 147.963 379.450,157.398 379.205,162.667 377.942 C 165.173 377.341,165.142 377.291,161.404 375.886 C 155.693 373.739,149.673 370.427,145.814 367.310 C 144.832 366.516,143.992 365.882,143.948 365.901 C 143.903 365.920,141.964 366.095,139.639 366.290 " stroke="none" fill="#ac9483" fill-rule="evenodd"></path><path id="path2" d="M123.733 201.417 C 123.733 201.463,124.123 201.853,124.600 202.283 L 125.467 203.067 124.683 202.200 C 123.953 201.392,123.733 201.211,123.733 201.417 M146.462 211.200 C 146.462 211.713,146.517 211.923,146.584 211.667 C 146.651 211.410,146.651 210.990,146.584 210.733 C 146.517 210.477,146.462 210.687,146.462 211.200 M183.262 223.467 C 183.262 223.980,183.317 224.190,183.384 223.933 C 183.451 223.677,183.451 223.257,183.384 223.000 C 183.317 222.743,183.262 222.953,183.262 223.467 M160.334 226.800 C 160.337 227.387,160.391 227.595,160.455 227.264 C 160.519 226.932,160.517 226.452,160.450 226.197 C 160.383 225.942,160.331 226.213,160.334 226.800 M183.262 233.867 C 183.262 234.380,183.317 234.590,183.384 234.333 C 183.451 234.077,183.451 233.657,183.384 233.400 C 183.317 233.143,183.262 233.353,183.262 233.867 M186.729 256.533 C 186.729 257.047,186.783 257.257,186.850 257.000 C 186.918 256.743,186.918 256.323,186.850 256.067 C 186.783 255.810,186.729 256.020,186.729 256.533 M184.711 278.844 C 184.613 278.942,184.535 279.152,184.537 279.311 C 184.540 279.507,184.605 279.502,184.737 279.298 C 184.845 279.131,185.173 278.935,185.467 278.862 C 185.983 278.733,185.982 278.728,185.444 278.698 C 185.139 278.681,184.809 278.747,184.711 278.844 M237.401 325.733 C 237.404 326.320,237.458 326.529,237.522 326.197 C 237.586 325.865,237.583 325.385,237.517 325.130 C 237.450 324.875,237.398 325.147,237.401 325.733 M267.400 341.522 C 267.730 341.585,268.270 341.585,268.600 341.522 C 268.930 341.458,268.660 341.406,268.000 341.406 C 267.340 341.406,267.070 341.458,267.400 341.522 M235.587 344.867 L 234.533 346.000 235.667 344.946 C 236.721 343.966,236.923 343.733,236.721 343.733 C 236.677 343.733,236.167 344.243,235.587 344.867 M275.933 343.926 C 276.410 343.985,277.190 343.985,277.667 343.926 C 278.143 343.867,277.753 343.819,276.800 343.819 C 275.847 343.819,275.457 343.867,275.933 343.926 M269.667 344.717 C 269.923 344.784,270.343 344.784,270.600 344.717 C 270.857 344.650,270.647 344.595,270.133 344.595 C 269.620 344.595,269.410 344.650,269.667 344.717 M266.867 348.722 C 267.197 348.785,267.737 348.785,268.067 348.722 C 268.397 348.658,268.127 348.606,267.467 348.606 C 266.807 348.606,266.537 348.658,266.867 348.722 M260.604 356.725 C 261.009 356.786,261.609 356.784,261.937 356.721 C 262.265 356.658,261.933 356.608,261.200 356.610 C 260.467 356.612,260.198 356.663,260.604 356.725 M220.870 360.725 C 221.276 360.786,221.876 360.784,222.204 360.721 C 222.532 360.658,222.200 360.608,221.467 360.610 C 220.733 360.612,220.465 360.663,220.870 360.725 " stroke="none" fill="#cca864" fill-rule="evenodd"></path><path id="path3" d="" stroke="none" fill="#c4a464" fill-rule="evenodd"></path><path id="path4" d="M159.543 226.800 C 159.545 227.533,159.597 227.802,159.658 227.396 C 159.719 226.991,159.718 226.391,159.654 226.063 C 159.591 225.735,159.541 226.067,159.543 226.800 M149.670 226.325 C 150.076 226.386,150.676 226.384,151.004 226.321 C 151.332 226.258,151.000 226.208,150.267 226.210 C 149.533 226.212,149.265 226.263,149.670 226.325 M183.262 235.733 C 183.262 236.247,183.317 236.457,183.384 236.200 C 183.451 235.943,183.451 235.523,183.384 235.267 C 183.317 235.010,183.262 235.220,183.262 235.733 M191.186 275.667 L 190.267 276.667 191.267 275.748 C 192.197 274.892,192.389 274.667,192.186 274.667 C 192.141 274.667,191.691 275.117,191.186 275.667 M193.586 314.867 L 192.667 315.867 193.667 314.948 C 194.597 314.092,194.789 313.867,194.586 313.867 C 194.541 313.867,194.091 314.317,193.586 314.867 M228.883 338.267 C 228.884 339.147,228.934 339.475,228.993 338.995 C 229.053 338.516,229.051 337.796,228.991 337.395 C 228.930 336.995,228.881 337.387,228.883 338.267 M268.870 342.325 C 269.276 342.386,269.876 342.384,270.204 342.321 C 270.532 342.258,270.200 342.208,269.467 342.210 C 268.733 342.212,268.465 342.263,268.870 342.325 M273.533 343.922 C 273.863 343.985,274.403 343.985,274.733 343.922 C 275.063 343.858,274.793 343.806,274.133 343.806 C 273.473 343.806,273.203 343.858,273.533 343.922 M266.200 344.184 C 266.457 344.251,266.877 344.251,267.133 344.184 C 267.390 344.117,267.180 344.062,266.667 344.062 C 266.153 344.062,265.943 344.117,266.200 344.184 M271.667 344.722 C 271.997 344.785,272.537 344.785,272.867 344.722 C 273.197 344.658,272.927 344.606,272.267 344.606 C 271.607 344.606,271.337 344.658,271.667 344.722 M253.933 344.984 C 254.190 345.051,254.610 345.051,254.867 344.984 C 255.123 344.917,254.913 344.862,254.400 344.862 C 253.887 344.862,253.677 344.917,253.933 344.984 " stroke="none" fill="#c3a46c" fill-rule="evenodd"></path></g></svg>